<mxfile host="app.diagrams.net" modified="2024-04-10T10:37:50.691Z" agent="Mozilla/5.0 (Windows NT 10.0; Win64; x64) AppleWebKit/537.36 (KHTML, like Gecko) Chrome/121.0.0.0 Safari/537.36 OPR/107.0.0.0" etag="gRDJ58KmhmKpDIH7t-BS" version="24.2.3" type="github">
  <diagram name="Strona-1" id="WkVspHhACQMJAxJm_E4U">
    <mxGraphModel dx="815" dy="468" grid="1" gridSize="10" guides="1" tooltips="1" connect="1" arrows="1" fold="1" page="1" pageScale="1" pageWidth="827" pageHeight="1169" math="0" shadow="0">
      <root>
        <mxCell id="0" />
        <mxCell id="1" parent="0" />
        <mxCell id="b4jzPHKlk284ow4nICsr-26" value="Zamowienie" style="swimlane;childLayout=stackLayout;horizontal=1;startSize=50;horizontalStack=0;rounded=1;fontSize=14;fontStyle=0;strokeWidth=2;resizeParent=0;resizeLast=1;shadow=0;dashed=0;align=center;arcSize=4;whiteSpace=wrap;html=1;" vertex="1" parent="1">
          <mxGeometry x="570" y="410" width="160" height="140" as="geometry" />
        </mxCell>
        <mxCell id="b4jzPHKlk284ow4nICsr-27" value="+ IdZamowienia&lt;div&gt;+ IdProduktu&lt;br&gt;+ DataZamowienia&lt;br&gt;+ DataRealizacji&lt;div&gt;+ IdKlienta&lt;/div&gt;&lt;/div&gt;" style="align=left;strokeColor=none;fillColor=none;spacingLeft=4;fontSize=12;verticalAlign=top;resizable=0;rotatable=0;part=1;html=1;" vertex="1" parent="b4jzPHKlk284ow4nICsr-26">
          <mxGeometry y="50" width="160" height="90" as="geometry" />
        </mxCell>
        <mxCell id="b4jzPHKlk284ow4nICsr-30" value="Klienci" style="swimlane;childLayout=stackLayout;horizontal=1;startSize=50;horizontalStack=0;rounded=1;fontSize=14;fontStyle=0;strokeWidth=2;resizeParent=0;resizeLast=1;shadow=0;dashed=0;align=center;arcSize=4;whiteSpace=wrap;html=1;" vertex="1" parent="1">
          <mxGeometry x="570" y="100" width="160" height="130" as="geometry" />
        </mxCell>
        <mxCell id="b4jzPHKlk284ow4nICsr-31" value="+ IdKlienta&lt;br&gt;+ NazwiskoKlienta&lt;br&gt;+ ImieKlienta&lt;div&gt;+ T&lt;span style=&quot;background-color: initial;&quot;&gt;elefon&lt;/span&gt;&lt;/div&gt;&lt;div&gt;+ Email&lt;/div&gt;&lt;div&gt;&lt;br&gt;&lt;/div&gt;" style="align=left;strokeColor=none;fillColor=none;spacingLeft=4;fontSize=12;verticalAlign=top;resizable=0;rotatable=0;part=1;html=1;" vertex="1" parent="b4jzPHKlk284ow4nICsr-30">
          <mxGeometry y="50" width="160" height="80" as="geometry" />
        </mxCell>
        <mxCell id="b4jzPHKlk284ow4nICsr-32" value="Dostawca" style="swimlane;childLayout=stackLayout;horizontal=1;startSize=50;horizontalStack=0;rounded=1;fontSize=14;fontStyle=0;strokeWidth=2;resizeParent=0;resizeLast=1;shadow=0;dashed=0;align=center;arcSize=4;whiteSpace=wrap;html=1;" vertex="1" parent="1">
          <mxGeometry x="350" y="410" width="160" height="150" as="geometry" />
        </mxCell>
        <mxCell id="b4jzPHKlk284ow4nICsr-33" value="+ IdZamowienia&lt;br&gt;+ IdKlienta&lt;br&gt;+ DataRealizacji&lt;div&gt;+ IdPracownika&lt;/div&gt;&lt;div&gt;+ ImiePracownika&lt;/div&gt;&lt;div&gt;+ NazwiskoPracownika&lt;/div&gt;" style="align=left;strokeColor=none;fillColor=none;spacingLeft=4;fontSize=12;verticalAlign=top;resizable=0;rotatable=0;part=1;html=1;" vertex="1" parent="b4jzPHKlk284ow4nICsr-32">
          <mxGeometry y="50" width="160" height="100" as="geometry" />
        </mxCell>
        <mxCell id="b4jzPHKlk284ow4nICsr-35" value="Koszyk" style="swimlane;childLayout=stackLayout;horizontal=1;startSize=50;horizontalStack=0;rounded=1;fontSize=14;fontStyle=0;strokeWidth=2;resizeParent=0;resizeLast=1;shadow=0;dashed=0;align=center;arcSize=4;whiteSpace=wrap;html=1;" vertex="1" parent="1">
          <mxGeometry x="570" y="270" width="160" height="90" as="geometry" />
        </mxCell>
        <mxCell id="b4jzPHKlk284ow4nICsr-36" value="+ IdProduktu&lt;br&gt;+ IdKlienta" style="align=left;strokeColor=none;fillColor=none;spacingLeft=4;fontSize=12;verticalAlign=top;resizable=0;rotatable=0;part=1;html=1;" vertex="1" parent="b4jzPHKlk284ow4nICsr-35">
          <mxGeometry y="50" width="160" height="40" as="geometry" />
        </mxCell>
        <mxCell id="b4jzPHKlk284ow4nICsr-39" value="Dostawa" style="swimlane;childLayout=stackLayout;horizontal=1;startSize=50;horizontalStack=0;rounded=1;fontSize=14;fontStyle=0;strokeWidth=2;resizeParent=0;resizeLast=1;shadow=0;dashed=0;align=center;arcSize=4;whiteSpace=wrap;html=1;" vertex="1" parent="1">
          <mxGeometry x="140" y="410" width="160" height="130" as="geometry" />
        </mxCell>
        <mxCell id="b4jzPHKlk284ow4nICsr-40" value="+ IdZamowienia&lt;br&gt;+ DataZamowienia&lt;br&gt;+ DataRealizacji&lt;div&gt;+ IdKlienta&lt;/div&gt;&lt;div&gt;+ Adres&amp;nbsp;&lt;/div&gt;" style="align=left;strokeColor=none;fillColor=none;spacingLeft=4;fontSize=12;verticalAlign=top;resizable=0;rotatable=0;part=1;html=1;" vertex="1" parent="b4jzPHKlk284ow4nICsr-39">
          <mxGeometry y="50" width="160" height="80" as="geometry" />
        </mxCell>
      </root>
    </mxGraphModel>
  </diagram>
</mxfile>
